<?xml version="1.0" encoding="utf-8"?>
<!-- Generator: Adobe Illustrator 19.1.0, SVG Export Plug-In . SVG Version: 6.00 Build 0)  -->
<svg version="1.1" id="Capa_1" xmlns="http://www.w3.org/2000/svg" xmlns:xlink="http://www.w3.org/1999/xlink" x="0px" y="0px"
	 viewBox="-810 810.8 80 80" style="enable-background:new -810 810.8 80 80;" xml:space="preserve">
<style type="text/css">
	.st0{fill:#5BBBE6;}
</style>
<g>
	<path class="st0" d="M-744.8,862.9h-50.3c-0.5,0-0.9-0.4-0.9-0.9v-3.3c0-0.5,0.4-0.9,0.9-0.9h50.3c0.5,0,0.9,0.4,0.9,0.9v3.3
		C-743.9,862.5-744.3,862.9-744.8,862.9z"/>
	<path class="st0" d="M-744.8,853.4h-50.3c-0.5,0-0.9-0.4-0.9-0.9v-3.3c0-0.5,0.4-0.9,0.9-0.9h50.3c0.5,0,0.9,0.4,0.9,0.9v3.3
		C-743.9,853-744.3,853.4-744.8,853.4z"/>
	<path class="st0" d="M-744.8,843.8h-50.3c-0.5,0-0.9-0.4-0.9-0.9v-3.3c0-0.5,0.4-0.9,0.9-0.9h50.3c0.5,0,0.9,0.4,0.9,0.9v3.3
		C-743.9,843.4-744.3,843.8-744.8,843.8z"/>
</g>
</svg>
