<?xml version="1.0" encoding="utf-8"?>
<!-- Generator: Adobe Illustrator 19.0.1, SVG Export Plug-In . SVG Version: 6.00 Build 0)  -->
<svg version="1.0" id="Capa_1" xmlns="http://www.w3.org/2000/svg" xmlns:xlink="http://www.w3.org/1999/xlink" x="0px" y="0px"
	 viewBox="0 0 80 80" style="enable-background:new 0 0 80 80;" xml:space="preserve">
<style type="text/css">
	.st0{fill:#5BBBE6;}
	.st1{fill:#FFFFFF;}
	.st2{fill:#5CBBE6;}
</style>
<g>
	<g>
		<path class="st0" d="M58.4,38.6c0,7.4,0,14.9,0,22.3c-0.6,0.6-0.5,1.5-0.8,2.2c-1.5,3.4-4,5.5-7.5,6.4c-0.7,0.2-1.4,0.2-2.1,0.2
			c-12.6,0-25.2,0-37.8,0c-2.2,0-4.1-0.9-5.8-2.2c-2.1-1.6-3.4-3.7-4.1-6.3c0-0.2,0-0.4-0.2-0.4c0-7.5,0-15,0-22.6
			c0.5-0.7,0.6-1.5,0.9-2.2c1.5-3.7,4.2-5.8,8.1-6.5c1.8-0.3,3.5-0.2,5.3-0.2c0.7,0,1.1-0.2,1.4-0.8c0.9-1.5,1.6-3.1,2.7-4.6
			c0.6-0.9,1.4-1.3,2.4-1.3c5.6,0,11.2,0,16.8,0c1.2,0,2,0.5,2.6,1.5c0.9,1.5,1.6,3,2.6,4.5c0.3,0.5,0.6,0.6,1.1,0.6
			c1.2,0,2.4,0,3.5,0c3.9,0.1,7,1.8,9.2,5C57.5,35.7,57.9,37.2,58.4,38.6z"/>
		<path class="st1" d="M13.5,49.6c-0.2-8.8,7.3-15.6,15.5-15.7c9.1-0.1,15.4,7,16,14.4c0.9,10-7.4,17.9-16.8,17.3
			C20.7,65.1,13.1,58.4,13.5,49.6z"/>
		<path class="st1" d="M8.8,33.8c1.2-0.2,2.4,0.6,2.6,1.8c0.3,1.7-0.5,2.8-2.1,3.2c-1.1,0.3-2.7-1-2.9-2.3
			C6.2,35.3,7.2,34.1,8.8,33.8z"/>
		<path class="st2" d="M39.9,49.9c0.2,6-5,10.4-10.1,10.6c-6.5,0.3-11-4.9-11.3-9.7c-0.4-7.6,5.1-11.9,10.7-11.8
			C35,38.9,40,43.2,39.9,49.9z"/>
	</g>
	<path class="st0" d="M66.2,38.9H65c-0.7,0-1.3-0.6-1.3-1.3V11.4c0-0.7,0.6-1.3,1.3-1.3h1.3c0.7,0,1.3,0.6,1.3,1.3v26.2
		C67.5,38.4,66.9,38.9,66.2,38.9z"/>
	<path class="st0" d="M51.2,26.2v-1.3c0-0.7,0.6-1.3,1.3-1.3h26.2c0.7,0,1.3,0.6,1.3,1.3v1.3c0,0.7-0.6,1.3-1.3,1.3H52.5
		C51.8,27.5,51.2,26.9,51.2,26.2z"/>
</g>
</svg>
