<?xml version="1.0" encoding="UTF-8" standalone="no"?>
<!-- Generator: Adobe Illustrator 19.1.0, SVG Export Plug-In . SVG Version: 6.00 Build 0)  -->

<svg
   xmlns:dc="http://purl.org/dc/elements/1.1/"
   xmlns:cc="http://creativecommons.org/ns#"
   xmlns:rdf="http://www.w3.org/1999/02/22-rdf-syntax-ns#"
   xmlns:svg="http://www.w3.org/2000/svg"
   xmlns="http://www.w3.org/2000/svg"
   xmlns:sodipodi="http://sodipodi.sourceforge.net/DTD/sodipodi-0.dtd"
   xmlns:inkscape="http://www.inkscape.org/namespaces/inkscape"
   version="1.1"
   id="Capa_1"
   x="0px"
   y="0px"
   viewBox="-810 810.8 80 80"
   style="enable-background:new -810 810.8 80 80;"
   xml:space="preserve"
   inkscape:version="0.91 r13725"
   sodipodi:docname="logo_secciones.svg"><metadata
     id="metadata17"><rdf:RDF><cc:Work
         rdf:about=""><dc:format>image/svg+xml</dc:format><dc:type
           rdf:resource="http://purl.org/dc/dcmitype/StillImage" /></cc:Work></rdf:RDF></metadata><defs
     id="defs15" /><sodipodi:namedview
     pagecolor="#ffffff"
     bordercolor="#666666"
     borderopacity="1"
     objecttolerance="10"
     gridtolerance="10"
     guidetolerance="10"
     inkscape:pageopacity="0"
     inkscape:pageshadow="2"
     inkscape:window-width="1536"
     inkscape:window-height="801"
     id="namedview13"
     showgrid="false"
     inkscape:zoom="2.95"
     inkscape:cx="-11.186441"
     inkscape:cy="40"
     inkscape:window-x="-8"
     inkscape:window-y="-8"
     inkscape:window-maximized="1"
     inkscape:current-layer="Capa_1" /><style
     type="text/css"
     id="style3">
	.st0{fill:#5BBBE6;}
</style><path
     style="fill:#ffffff"
     inkscape:connector-curvature="0"
     id="path7"
     d="m -744.8,862.9 -50.3,0 c -0.5,0 -0.9,-0.4 -0.9,-0.9 l 0,-3.3 c 0,-0.5 0.4,-0.9 0.9,-0.9 l 50.3,0 c 0.5,0 0.9,0.4 0.9,0.9 l 0,3.3 c 0,0.5 -0.4,0.9 -0.9,0.9 z"
     class="st0" /><path
     style="fill:#ffffff"
     inkscape:connector-curvature="0"
     id="path9"
     d="m -744.8,853.4 -50.3,0 c -0.5,0 -0.9,-0.4 -0.9,-0.9 l 0,-3.3 c 0,-0.5 0.4,-0.9 0.9,-0.9 l 50.3,0 c 0.5,0 0.9,0.4 0.9,0.9 l 0,3.3 c 0,0.5 -0.4,0.9 -0.9,0.9 z"
     class="st0" /><path
     style="fill:#ffffff"
     inkscape:connector-curvature="0"
     id="path11"
     d="m -744.8,843.8 -50.3,0 c -0.5,0 -0.9,-0.4 -0.9,-0.9 l 0,-3.3 c 0,-0.5 0.4,-0.9 0.9,-0.9 l 50.3,0 c 0.5,0 0.9,0.4 0.9,0.9 l 0,3.3 c 0,0.5 -0.4,0.9 -0.9,0.9 z"
     class="st0" /></svg>