<?xml version="1.0" encoding="utf-8"?>
<!-- Generator: Adobe Illustrator 19.0.1, SVG Export Plug-In . SVG Version: 6.00 Build 0)  -->
<svg version="1.0" id="Capa_1" xmlns="http://www.w3.org/2000/svg" xmlns:xlink="http://www.w3.org/1999/xlink" x="0px" y="0px"
	 viewBox="0 0 80 80" style="enable-background:new 0 0 80 80;" xml:space="preserve">
<style type="text/css">
	.st0{fill:#5BBBE6;}
</style>
<g>
	<path class="st0" d="M78.6,58.6H1.4c-0.8,0-1.4-0.6-1.4-1.4l0-5c0-0.8,0.6-1.4,1.4-1.4h77.1c0.8,0,1.4,0.6,1.4,1.4v5
		C80,57.9,79.4,58.6,78.6,58.6z"/>
	<path class="st0" d="M78.6,44H1.4C0.6,44,0,43.4,0,42.6l0-5c0-0.8,0.6-1.4,1.4-1.4h77.1c0.8,0,1.4,0.6,1.4,1.4v5
		C80,43.4,79.4,44,78.6,44z"/>
	<path class="st0" d="M78.6,29.3H1.4c-0.8,0-1.4-0.6-1.4-1.4l0-5c0-0.8,0.6-1.4,1.4-1.4h77.1c0.8,0,1.4,0.6,1.4,1.4v5
		C80,28.7,79.4,29.3,78.6,29.3z"/>
</g>
</svg>
